<svg width="328" height="119" viewBox="0 0 328 119" fill="none" xmlns="http://www.w3.org/2000/svg">
<path d="M321.81 59.61C321.26 58.36 319.84 57.41 319.04 56.25C318.547 55.53 317.97 54.91 317.31 54.39C315.897 53.2633 314.49 52.07 313.09 50.81C311.783 49.6433 310.39 48.5367 308.91 47.49C293.223 36.4567 276.113 28.0333 257.58 22.22C245.027 18.28 232.703 15.3067 220.61 13.3C190.657 8.33333 159.91 6.05999 128.37 6.47999C125.523 6.51999 122.703 7.06666 119.91 8.11999C114.96 9.98999 113.47 14.23 112.55 19.06C110.597 29.2 108.86 38.7833 107.34 47.81C107.253 48.3367 107.443 48.4767 107.91 48.23C109.223 47.5367 110.573 46.87 111.96 46.23C117.447 43.7167 123.2 41.49 129.22 39.55C144.72 34.54 160.24 33.39 176.5 36.27C184.14 37.6233 191.323 39.44 198.05 41.72C207.257 44.8467 216.037 48.5367 224.39 52.79C233.943 57.6567 243.173 62.9567 252.08 68.69C253.393 69.5367 254.773 70.3133 256.22 71.02C257.74 71.76 259.263 72.2733 260.79 72.56C264.79 73.29 269.91 73.35 273.46 75.52C275.167 76.5666 276.64 77.8733 277.88 79.44C283.873 87.0333 288.89 94.5933 292.93 102.12C294.397 104.86 295.463 107.587 296.13 110.3C296.78 112.95 295.89 117 292.46 117.08C288 117.18 282.65 111.51 279.56 107.88C277.32 105.26 275.09 102.79 272.87 100.47C271.08 98.61 268.78 97.48 266.17 96.68C257.997 94.1667 250.447 91.3567 243.52 88.25C236.987 85.3167 230.033 81.1866 222.66 75.86C214.127 69.6933 205.667 64.79 197.28 61.15C190.58 58.25 183.05 56.56 175.95 59.23C171.77 60.7967 167.593 62.4267 163.42 64.12C158.25 66.22 152.38 67.47 146.72 67.52C144.373 67.54 141.77 67.2967 138.91 66.79C133.8 65.89 127.38 65.57 122.75 66.56C117.623 67.6533 113.793 68.3633 111.26 68.69C109.62 68.9033 107.917 68.65 106.15 67.93C104.737 67.3567 103.773 66.34 103.26 64.88C102.273 62.1067 101.96 59.1033 102.32 55.87C102.347 55.5967 102.24 55.5233 102 55.65L97.66 57.89C97.5732 57.9333 97.4979 57.9968 97.4405 58.0751C97.3831 58.1533 97.3452 58.2441 97.33 58.34C96.6767 62.5533 95.7633 66.5667 94.59 70.38C93.3567 74.4067 90.9567 76.88 87.39 77.8C80.7 79.54 72.59 78.87 65.72 78.53C65.4 78.5167 65.11 78.6033 64.85 78.79C53.2767 87.1567 42.2533 95.8567 31.78 104.89C25.64 110.19 19.67 114.62 12.28 117.45C10.4933 118.13 8.71665 118.25 6.94999 117.81C3.13999 116.84 1.38999 112.48 2.48999 108.96C3.37999 106.12 5.14999 103.52 7.14999 101.34C12.27 95.7667 17.3933 90.1533 22.52 84.5C22.8667 84.12 23.0267 84.1833 23 84.69C22.98 85.05 23.08 85.3867 23.3 85.7C24.3933 87.2267 25.5467 87.3333 26.76 86.02C27.22 85.5266 27.5367 85.6067 27.71 86.26C27.9433 87.1467 28.3933 87.9067 29.06 88.54C29.32 88.7867 29.6133 88.8433 29.94 88.71C32.24 87.8033 34.19 86.6333 35.79 85.2C38.9767 82.3533 42.22 79.81 45.52 77.57C50.88 73.95 56.55 74.01 62.75 74.34C64.35 74.43 65.76 73.27 66.98 72.4C74.88 66.7933 83.3867 61.4267 92.5 56.3C93.38 55.8 93.88 55.02 94.06 54.03C95.1533 48.0233 96.1833 42.03 97.15 36.05C98.1967 29.63 98.7533 23.9167 98.82 18.91C98.89 13.31 96.79 7.44 91.06 5.58C87.8533 4.53333 83.9833 4.36666 79.45 5.08C78.29 5.26 76.58 5.72666 74.32 6.47999C72.5933 7.05332 70.9267 7.68332 69.32 8.36999C65.8867 9.83666 62.3933 11.3933 58.84 13.04C49.4733 17.38 40.3767 18.7967 31.55 17.29C27.57 16.6167 23.5367 15.7433 19.45 14.67C18.6233 14.4567 18.2467 14.7767 18.32 15.63C18.59 18.89 22.26 21.56 21.28 24.94C20.94 26.1333 20.3433 27.18 19.49 28.08C16.57 31.1867 13.5533 34.4133 10.44 37.76C5.82999 42.73 2.17999 48.24 6.94999 54.63C7.98332 56.0167 9.09999 57.23 10.3 58.27C12.3667 60.07 14.4867 60.0533 16.66 58.22C19.09 56.17 21.59 53.3 25.03 53.08C27.9767 52.9 30.62 52.4067 32.96 51.6C35.3467 50.7867 37.6333 49.36 39.82 47.32C41.18 46.0467 42.74 45.22 44.5 44.84C46.3933 44.44 48.18 44.4633 49.86 44.91C55.68 46.4567 61.07 49.2633 66.03 53.33C66.3215 53.5699 66.5224 53.8977 66.6 54.26C67.63 58.85 62.17 61.34 58.73 62.72C50.5033 66.0333 41.29 68.5 31.09 70.12C29.04 70.45 27.14 71.83 26.59 73.84C26.3233 74.7933 25.9933 75.74 25.6 76.68C25.4133 77.1333 25.08 77.4133 24.6 77.52C23.5733 77.74 22.7967 77.4433 22.27 76.63C20.63 74.07 24.24 69.14 26.04 67.82C27.4667 66.7733 29.6767 66.0167 32.67 65.55C40.9433 64.2567 49.2967 61.9733 57.73 58.7C59.3167 58.0867 60.8167 57.1567 62.23 55.91C62.5633 55.61 62.5167 55.3967 62.09 55.27C60.27 54.73 59.05 53.39 57.39 52.48C54.3633 50.82 51.58 49.6433 49.04 48.95C46.4866 48.25 44.1733 48.88 42.1 50.84C39.86 52.96 37.3267 54.4867 34.5 55.42C31.5067 56.42 28.2067 57.0767 24.6 57.39C24.1099 57.4287 23.6509 57.6457 23.31 58C21.6433 59.7333 19.8433 61.2 17.91 62.4C11.18 66.56 3.99999 59.38 1.74999 53.99C-1.48001 46.24 2.26999 40.45 7.82999 34.57C10.95 31.2767 13.93 28.0467 16.77 24.88C17.05 24.5679 17.2099 24.1667 17.2209 23.7487C17.2319 23.3307 17.0933 22.9233 16.83 22.6C15.81 21.33 15.39 19.87 14.78 18.41C12.78 13.66 15.82 9.57 21.16 10.85C24.5733 11.67 27.9 12.3967 31.14 13.03C37.2333 14.23 43.52 13.87 50 11.95C50.9733 11.6633 51.9433 11.36 52.91 11.04C55.12 10.32 57.13 9.01999 59.25 8.27999C60.5233 7.82666 61.7633 7.29666 62.97 6.69C68.2633 4.01 73.3 2.14 78.08 1.08C84.4533 -0.333338 90.2433 0.326658 95.45 3.05999C98.3433 4.57332 100.397 7.10999 101.61 10.67C102.943 14.5967 103.35 19.07 102.83 24.09C101.83 33.67 100.427 42.9133 98.62 51.82C98.4533 52.64 98.7333 52.8433 99.46 52.43L102.02 50.99C102.687 50.6167 103.03 50.0467 103.05 49.28C103.09 48 103.26 46.4967 103.56 44.77C105.16 35.7033 106.727 27.32 108.26 19.62C108.567 18.0733 108.91 16.5533 109.29 15.06C111.077 8.05999 115.657 4.02999 123.03 2.96999C126.983 2.40333 130.887 2.13666 134.74 2.16999C153.54 2.34333 172.127 3.30333 190.5 5.05C213.98 7.29 236.03 11.4533 256.65 17.54C267.017 20.6 277.893 25.0233 289.28 30.81C300.533 36.5367 310.017 42.71 317.73 49.33C321.443 52.51 324.293 55.7067 326.28 58.92C327.11 60.28 327.74 63.16 326.34 64.4C324.42 66.12 321.31 65.03 319.43 63.94C316.703 62.3667 314.193 60.72 311.9 59C298.727 49.1267 282.083 40.3767 261.97 32.75C253.99 29.7167 247.7 28.06 243.1 27.78C240.72 27.63 237.57 28.19 238.62 31.51C241.047 39.1367 243.893 46.35 247.16 53.15C247.547 53.95 247.76 54.7967 247.8 55.69C247.853 56.9167 247.517 57.5533 246.79 57.6C245.523 57.6867 244.597 57.1667 244.01 56.04C240.937 50.1533 237.987 42.91 235.16 34.31C233.78 30.11 233.87 25.83 238.74 24.22C240.693 23.5733 242.7 23.4067 244.76 23.72C254.14 25.14 262.53 28.29 271.21 31.87C287.597 38.6233 301.957 46.5167 314.29 55.55C316.903 57.4633 319.26 58.96 321.36 60.04C321.907 60.3267 322.057 60.1833 321.81 59.61ZM278.18 86.67C276.21 83.84 273.13 79.39 269.83 78.41C265.79 77.22 261.74 77.36 257.97 76.13C254.41 74.9567 251.11 73.23 248.07 70.95C247.06 70.2 245.88 69.87 244.84 69.15C244.253 68.7433 243.657 68.3533 243.05 67.98C232.363 61.3667 221.847 55.79 211.5 51.25C201.64 46.93 192.26 43.82 181.19 41.33C162.863 37.1967 144.86 38.2733 127.18 44.56C119.66 47.2267 112.993 50.0567 107.18 53.05C107.056 53.1117 106.949 53.202 106.868 53.3132C106.786 53.4245 106.732 53.5537 106.71 53.69C106.237 56.6033 106.237 59.4233 106.71 62.15C107.023 63.9767 108.127 64.7833 110.02 64.57C112.347 64.3033 114.647 63.9267 116.92 63.44C120.807 62.6067 124.697 62.1 128.59 61.92C135.66 61.6 142.46 63.82 149.49 63.28C152.763 63.0333 155.713 62.4367 158.34 61.49C162.96 59.83 168.04 57.8733 173.58 55.62C181.44 52.43 190.03 53.62 198.06 57.03C207.913 61.21 217.25 66.5767 226.07 73.13C233.097 78.35 240.497 82.59 248.27 85.85C254.257 88.3633 260.63 90.65 267.39 92.71C271.21 93.87 274.25 95.61 276.99 98.75C280.33 102.583 283.77 106.277 287.31 109.83C288.56 111.08 290.01 112.01 291.53 112.73C291.641 112.782 291.765 112.801 291.886 112.785C292.008 112.768 292.122 112.716 292.214 112.635C292.306 112.554 292.373 112.448 292.406 112.33C292.439 112.212 292.437 112.087 292.4 111.97C289.62 102.75 283.6 94.46 278.18 86.67ZM91.8 61.31C84.8133 65.3833 78.1333 69.6367 71.76 74.07C71.2667 74.4167 71.3233 74.5966 71.93 74.61C76.0233 74.7233 80.04 74.6233 83.98 74.31C87.54 74.0233 89.78 72.27 90.7 69.05C91.36 66.7633 91.9767 64.3667 92.55 61.86C92.7233 61.1 92.4733 60.9167 91.8 61.31ZM24.74 89.84L24.72 89.37C24.7144 89.2901 24.6857 89.2137 24.6372 89.15C24.5887 89.0863 24.5226 89.0383 24.4471 89.0117C24.3717 88.9851 24.29 88.9812 24.2124 89.0004C24.1347 89.0197 24.0643 89.0612 24.01 89.12C19.4567 94.0733 14.9767 98.9466 10.57 103.74C9.09665 105.347 7.85999 107.127 6.85999 109.08C6.20666 110.347 6.25332 111.627 6.99999 112.92C7.86999 114.41 10.27 113.96 11.52 113.43C17.69 110.79 23.15 106.83 28.2 102.47C37.8667 94.1233 47.71 86.2567 57.73 78.87C58.23 78.5033 58.17 78.3167 57.55 78.31C49.78 78.24 44.06 83.4 38.48 88.38C34.89 91.59 28.75 95.37 25 90.55C24.84 90.3433 24.7533 90.1067 24.74 89.84Z" fill="black"/>
<path d="M126.324 104.09C126.312 107.578 124.915 110.918 122.44 113.375C119.965 115.833 116.616 117.206 113.128 117.194L110.628 117.185C107.14 117.173 103.801 115.776 101.343 113.302C98.8856 110.827 97.5118 107.477 97.524 103.99L97.5362 100.51C97.5484 97.0221 98.9455 93.6822 101.42 91.2248C103.895 88.7673 107.244 87.3935 110.732 87.4057L113.232 87.4145C116.72 87.4267 120.059 88.8238 122.517 91.2985C124.974 93.7732 126.348 97.1227 126.336 100.61L126.324 104.09ZM111.886 110.3C112.64 110.301 113.387 110.096 114.084 109.695C114.781 109.294 115.415 108.706 115.949 107.964C116.483 107.222 116.908 106.341 117.198 105.371C117.488 104.401 117.638 103.361 117.64 102.31C117.644 100.188 117.043 98.1524 115.969 96.6502C114.895 95.1481 113.436 94.3026 111.914 94.3C111.16 94.2987 110.413 94.5043 109.716 94.9051C109.019 95.3059 108.385 95.8941 107.851 96.636C107.317 97.378 106.892 98.2592 106.602 99.2293C106.312 100.199 106.162 101.239 106.16 102.29C106.156 104.412 106.757 106.448 107.831 107.95C108.905 109.452 110.364 110.297 111.886 110.3Z" fill="black"/>
<path d="M86.5 95.77V115.98C86.5 116.081 86.46 116.177 86.3887 116.249C86.3174 116.32 86.2208 116.36 86.12 116.36L77.88 116.38C77.7792 116.38 77.6826 116.34 77.6113 116.269C77.54 116.197 77.5 116.101 77.5 116V95.74C77.5 95.6392 77.46 95.5426 77.3887 95.4713C77.3174 95.4 77.2208 95.36 77.12 95.36L69.77 95.38C69.7201 95.38 69.6707 95.3702 69.6246 95.3511C69.5785 95.332 69.5366 95.304 69.5013 95.2687C69.466 95.2334 69.438 95.1915 69.4189 95.1454C69.3998 95.0993 69.39 95.0499 69.39 95L69.37 88.38C69.37 88.2792 69.41 88.1826 69.4813 88.1113C69.5525 88.04 69.6492 88 69.75 88H94.38C94.4808 88 94.5774 88.04 94.6487 88.1113C94.72 88.1826 94.76 88.2792 94.76 88.38L94.74 94.98C94.74 95.0808 94.7 95.1774 94.6287 95.2487C94.5574 95.32 94.4608 95.36 94.36 95.36L86.88 95.39C86.7792 95.39 86.6826 95.43 86.6113 95.5013C86.54 95.5726 86.5 95.6692 86.5 95.77Z" fill="black"/>
<path d="M139.96 109H152.05C152.14 109 152.227 109.036 152.29 109.1C152.354 109.163 152.39 109.25 152.39 109.34L152.37 116.03C152.37 116.075 152.361 116.119 152.344 116.16C152.327 116.201 152.302 116.239 152.27 116.27C152.239 116.302 152.201 116.327 152.16 116.344C152.119 116.361 152.075 116.37 152.03 116.37H131.09C131.045 116.37 131.001 116.361 130.96 116.344C130.919 116.327 130.881 116.302 130.85 116.27C130.818 116.239 130.793 116.201 130.776 116.16C130.759 116.119 130.75 116.075 130.75 116.03V88.34C130.75 88.2498 130.786 88.1633 130.85 88.0996C130.913 88.0358 131 88 131.09 88H139.29C139.38 88 139.467 88.0358 139.53 88.0996C139.594 88.1633 139.63 88.2498 139.63 88.34L139.62 108.66C139.62 108.75 139.656 108.837 139.72 108.9C139.783 108.964 139.87 109 139.96 109Z" fill="black"/>
<path d="M164.45 109H176.54C176.628 109 176.711 109.035 176.773 109.097C176.835 109.159 176.87 109.242 176.87 109.33L176.88 116.04C176.88 116.128 176.845 116.211 176.783 116.273C176.721 116.335 176.638 116.37 176.55 116.37L155.58 116.38C155.492 116.38 155.409 116.345 155.347 116.283C155.285 116.221 155.25 116.138 155.25 116.05V88.33C155.25 88.2867 155.259 88.2437 155.275 88.2037C155.292 88.1637 155.316 88.1273 155.347 88.0966C155.377 88.066 155.414 88.0417 155.454 88.0251C155.494 88.0085 155.537 88 155.58 88H163.8C163.888 88 163.971 88.0348 164.033 88.0966C164.095 88.1585 164.13 88.2425 164.13 88.33L164.12 108.67C164.12 108.758 164.155 108.841 164.217 108.903C164.279 108.965 164.362 109 164.45 109Z" fill="black"/>
<path d="M188.62 95.74V98.27C188.62 98.3655 188.658 98.4571 188.725 98.5246C188.793 98.5921 188.885 98.63 188.98 98.63L201.39 98.61C201.437 98.61 201.484 98.6193 201.528 98.6374C201.571 98.6555 201.611 98.682 201.645 98.7155C201.678 98.7489 201.705 98.7886 201.723 98.8322C201.741 98.8759 201.75 98.9227 201.75 98.97V105.25C201.75 105.345 201.712 105.437 201.645 105.505C201.577 105.572 201.485 105.61 201.39 105.61L188.99 105.63C188.895 105.63 188.803 105.668 188.735 105.735C188.668 105.803 188.63 105.895 188.63 105.99L188.61 108.64C188.61 108.735 188.648 108.827 188.715 108.895C188.783 108.962 188.875 109 188.97 109H204.02C204.067 109 204.114 109.009 204.158 109.027C204.201 109.045 204.241 109.072 204.275 109.105C204.308 109.139 204.335 109.179 204.353 109.222C204.371 109.266 204.38 109.313 204.38 109.36L204.37 116.01C204.37 116.105 204.332 116.197 204.265 116.265C204.197 116.332 204.105 116.37 204.01 116.37H179.99C179.895 116.37 179.803 116.332 179.735 116.265C179.668 116.197 179.63 116.105 179.63 116.01V88.36C179.63 88.2645 179.668 88.173 179.735 88.1054C179.803 88.0379 179.895 88 179.99 88H203.52C203.615 88 203.707 88.0379 203.775 88.1054C203.842 88.173 203.88 88.2645 203.88 88.36V95C203.88 95.0955 203.842 95.187 203.775 95.2545C203.707 95.3221 203.615 95.36 203.52 95.36L188.98 95.38C188.885 95.38 188.793 95.4179 188.725 95.4854C188.658 95.553 188.62 95.6445 188.62 95.74Z" fill="black"/>
<path d="M230.23 103.63C232.337 104.73 233.513 106.44 233.76 108.76C234.1 111.96 234.353 114.01 234.52 114.91C234.7 115.89 234.29 116.38 233.29 116.38L226.79 116.37C226.07 116.37 225.67 116.01 225.59 115.29L224.95 109.4C224.75 107.587 223.74 106.65 221.92 106.59L218.8 106.47C217.787 106.437 217.277 106.93 217.27 107.95L217.22 116.06C217.213 116.267 217.11 116.37 216.91 116.37L208.66 116.38C208.623 116.38 208.587 116.373 208.553 116.359C208.519 116.345 208.488 116.324 208.462 116.298C208.436 116.272 208.415 116.241 208.401 116.207C208.387 116.173 208.38 116.137 208.38 116.1V88.56C208.38 88.4115 208.439 88.269 208.544 88.164C208.649 88.059 208.791 88 208.94 88C214.067 87.98 219.343 87.9933 224.77 88.04C229.4 88.07 233.37 90.3 234.16 95.2C234.68 98.47 233.27 101.45 230.24 102.84C229.7 103.093 229.697 103.357 230.23 103.63ZM217.25 95.18V99.7C217.25 99.8167 217.296 99.9286 217.379 100.011C217.461 100.094 217.573 100.14 217.69 100.14L221.92 100.15C222.844 100.151 223.73 99.8902 224.384 99.4253C225.039 98.9604 225.407 98.3292 225.41 97.67V97.25C225.411 96.9224 225.322 96.5978 225.147 96.2947C224.972 95.9917 224.716 95.7161 224.391 95.4839C224.067 95.2516 223.682 95.0673 223.258 94.9413C222.834 94.8154 222.379 94.7504 221.92 94.75L217.69 94.74C217.573 94.74 217.461 94.7863 217.379 94.8689C217.296 94.9514 217.25 95.0633 217.25 95.18Z" fill="black"/>
</svg>
